<svg width="264" height="445" xmlns="http://www.w3.org/2000/svg" xmlns:xlink="http://www.w3.org/1999/xlink" xml:space="preserve" overflow="hidden"><defs><clipPath id="clip0"><rect x="364" y="128" width="264" height="445"/></clipPath></defs><g clip-path="url(#clip0)" transform="translate(-364 -128)"><path d="M645.969 287.453C645.969 255.944 606.51 226.084 546.015 207.567 559.975 145.908 553.771 96.8517 526.431 81.146 520.129 77.4619 512.761 75.7169 504.714 75.7169L504.714 97.3364C509.174 97.3364 512.761 98.2089 515.767 99.8571 528.952 107.419 534.672 136.213 530.212 173.247 529.146 182.36 527.4 191.958 525.268 201.75 506.266 197.097 485.519 193.509 463.705 191.183 450.617 173.247 437.044 156.96 423.375 142.708 454.98 113.333 484.646 97.2395 504.811 97.2395L504.811 75.6199C478.151 75.6199 443.249 94.6218 407.96 127.584 372.67 94.8157 337.769 76.0077 311.108 76.0077L311.108 97.6273C331.176 97.6273 360.94 113.624 392.545 142.805 378.972 157.057 365.399 173.247 352.505 191.183 330.595 193.509 309.848 197.097 290.846 201.847 288.616 192.152 286.968 182.748 285.805 173.732 281.248 136.698 286.871 107.904 299.959 100.245 302.867 98.4998 306.648 97.7242 311.108 97.7242L311.108 76.1047C302.964 76.1047 295.596 77.8497 289.198 81.5338 261.955 97.2395 255.847 146.199 269.905 207.664 209.603 226.278 170.339 256.041 170.339 287.453 170.339 318.961 209.797 348.821 270.293 367.338 256.332 428.998 262.537 478.054 289.876 493.759 296.178 497.443 303.546 499.188 311.69 499.188 338.351 499.188 373.252 480.186 408.541 447.224 443.831 479.993 478.732 498.801 505.393 498.801 513.537 498.801 520.905 497.056 527.304 493.371 554.546 477.666 560.654 428.707 546.596 367.241 606.704 348.724 645.969 318.864 645.969 287.453ZM519.741 222.788C516.154 235.294 511.695 248.188 506.653 261.083 502.679 253.327 498.51 245.571 493.953 237.815 489.494 230.059 484.743 222.497 479.993 215.129 493.759 217.165 507.041 219.686 519.741 222.788ZM475.339 326.038C467.777 339.126 460.021 351.536 451.974 363.073 437.529 364.333 422.89 365.012 408.154 365.012 393.514 365.012 378.875 364.333 364.527 363.169 356.48 351.633 348.627 339.32 341.065 326.329 333.697 313.629 327.008 300.735 320.9 287.743 326.911 274.752 333.697 261.761 340.968 249.061 348.53 235.973 356.286 223.564 364.333 212.027 378.778 210.766 393.417 210.088 408.154 210.088 422.793 210.088 437.432 210.766 451.781 211.93 459.827 223.467 467.68 235.779 475.242 248.77 482.61 261.47 489.3 274.365 495.407 287.356 489.3 300.347 482.61 313.338 475.339 326.038ZM506.653 313.435C511.889 326.426 516.348 339.417 520.032 352.02 507.332 355.123 493.953 357.74 480.09 359.776 484.84 352.311 489.59 344.652 494.05 336.799 498.51 329.044 502.679 321.191 506.653 313.435ZM408.348 416.879C399.331 407.572 390.315 397.198 381.396 385.855 390.121 386.243 399.04 386.534 408.057 386.534 417.17 386.534 426.186 386.34 435.008 385.855 426.283 397.198 417.267 407.572 408.348 416.879ZM336.218 359.776C322.451 357.74 309.169 355.22 296.469 352.117 300.056 339.611 304.516 326.717 309.557 313.823 313.532 321.579 317.701 329.334 322.257 337.09 326.814 344.846 331.467 352.408 336.218 359.776ZM407.863 158.026C416.879 167.333 425.895 177.707 434.815 189.05 426.089 188.662 417.17 188.371 408.154 188.371 399.04 188.371 390.024 188.565 381.202 189.05 389.927 177.707 398.944 167.333 407.863 158.026ZM336.121 215.129C331.37 222.594 326.62 230.253 322.16 238.106 317.701 245.862 313.532 253.618 309.557 261.373 304.322 248.382 299.862 235.391 296.178 222.788 308.878 219.783 322.257 217.165 336.121 215.129ZM248.382 336.509C214.063 321.869 191.861 302.674 191.861 287.453 191.861 272.232 214.063 252.939 248.382 238.397 256.72 234.81 265.833 231.61 275.237 228.605 280.763 247.607 288.034 267.384 297.051 287.647 288.131 307.812 280.957 327.492 275.528 346.397 265.93 343.392 256.817 340.096 248.382 336.509ZM300.541 475.048C287.356 467.486 281.636 438.692 286.095 401.658 287.162 392.545 288.907 382.947 291.04 373.155 310.042 377.809 330.789 381.396 352.602 383.723 365.69 401.658 379.263 417.945 392.933 432.197 361.327 461.572 331.661 477.666 311.496 477.666 307.133 477.569 303.449 476.696 300.541 475.048ZM530.503 401.173C535.059 438.208 529.436 467.001 516.348 474.66 513.44 476.405 509.659 477.181 505.199 477.181 485.131 477.181 455.368 461.185 423.762 432.003 437.335 417.752 450.908 401.561 463.802 383.626 485.713 381.299 506.46 377.712 525.461 372.961 527.691 382.753 529.436 392.157 530.503 401.173ZM567.828 336.509C559.49 340.096 550.377 343.295 540.973 346.3 535.447 327.299 528.176 307.521 519.16 287.259 528.079 267.093 535.253 247.413 540.682 228.508 550.28 231.513 559.393 234.81 567.925 238.397 602.245 253.036 624.446 272.232 624.446 287.453 624.349 302.674 602.148 321.966 567.828 336.509Z" fill="#404040" fill-rule="nonzero" fill-opacity="1" transform="matrix(1.00097 0 0 1 219.08 62.1604)"/><path d="M452.362 287.453C452.362 311.922 432.526 331.758 408.057 331.758 383.587 331.758 363.751 311.922 363.751 287.453 363.751 262.983 383.587 243.147 408.057 243.147 432.526 243.147 452.362 262.983 452.362 287.453Z" fill="#404040" fill-rule="nonzero" fill-opacity="1" transform="matrix(1.00097 0 0 1 219.08 62.1604)"/></g></svg>